<?xml version="1.0" encoding="UTF-8"?>
<svg id="Layer_2" data-name="Layer 2" xmlns="http://www.w3.org/2000/svg" viewBox="0 0 950 120">
  <defs>
    <style>
      .cls-1, .cls-2 {
        fill: #27251f;
      }

      .cls-2 {
        stroke: #f0960a;
        stroke-miterlimit: 10;
        stroke-width: 5px;
      }
    </style>
  </defs>
  <g id="Layer_1-2" data-name="Layer 1">
    <g>
      <path class="cls-1" d="M206.44,21.11l-.47,77.78h-16.01l.47-14.11h-18.35l-5.84,14.11h-16.24l34.36-77.78h22.09ZM190.78,71.44l1.17-34.78-14.37,34.78h13.21Z"/>
      <path class="cls-1" d="M219.88,83.33h16.36l-3.5,15.56h-16.36l3.51-15.56Z"/>
      <path class="cls-1" d="M255.64,21.11h15.07l-5.73,58.67,21.5-58.67h16.83l-4.79,58.67,20.68-58.67h14.61l-28.05,77.78h-20.22l4.21-52.44-19.4,52.44h-21.5l6.78-77.78Z"/>
      <path class="cls-1" d="M325.29,83.33h16.36l-3.51,15.56h-16.36l3.51-15.56Z"/>
      <path class="cls-1" d="M385.82,21.11h16.13l-2.92,59.78,23.96-59.78h16.13l-33.19,77.67h-21.5l1.4-77.67Z"/>
      <path class="cls-1" d="M478.84,21.11l-.47,77.78h-16.01l.47-14.11h-18.35l-5.84,14.11h-16.24l34.36-77.78h22.09ZM463.18,71.44l1.17-34.78-14.37,34.78h13.21Z"/>
      <path class="cls-1" d="M489.35,81.78c0-2.56.47-5,.82-6.56l12.15-54.11h16.71l-12.62,56.56c-.12.56-.35,1.67-.35,2.67,0,3.89,2.92,6.11,7.71,6.11,5.03,0,7.6-2.11,8.88-7.11l13.09-58.22h16.13l-13.21,59c-2.8,12.56-11.22,19.89-25.59,19.89-12.97,0-23.72-5.89-23.72-18.22Z"/>
      <path class="cls-1" d="M606.79,38.67c0,1.89-.23,3.89-.7,6l-.47,2.22h-15.66l.7-3.11c.35-1.44.47-2,.47-3.11,0-4.44-2.57-7.11-7.71-7.11s-8.18,2.78-9.23,7.44l-8.06,36.33c-.23.89-.35,1.67-.35,2.44,0,4.11,2.92,6.67,7.83,6.67,5.26,0,8.06-2.78,9.11-7.44l2.22-10.44h-8.06l3.04-14.11h24.07l-5.84,25.89c-2.8,12.56-11.92,19.67-25.71,19.67-12.86,0-23.26-6.11-23.26-18.56,0-1.89.23-4,.7-6.11l7.83-35.44c2.8-12.67,11.8-19.89,25.71-19.89,12.97,0,23.37,6.22,23.37,18.67Z"/>
      <path class="cls-1" d="M622.34,21.11h16.71l-7.13,31.56h16.83l7.13-31.56h16.71l-17.41,77.78h-16.71l7.25-32.67h-16.83l-7.25,32.67h-16.71l17.41-77.78Z"/>
      <path class="cls-1" d="M720.26,21.11l-.47,77.78h-16.01l.47-14.11h-18.35l-5.84,14.11h-16.24l34.36-77.78h22.09ZM704.6,71.44l1.17-34.78-14.37,34.78h13.21Z"/>
      <path class="cls-1" d="M746.09,21.11h19.75l6.31,45,10.28-45h14.84l-17.41,77.78h-16.13l-7.71-55.33-12.5,55.33h-14.84l17.41-77.78Z"/>
      <path class="cls-1" d="M816.55,81.44c0-1.89.23-4,.7-6.11l7.95-35.44c2.92-12.89,11.33-19.89,25.47-19.89,12.86,0,23.02,5.78,23.02,18.44,0,1.89-.23,4.22-.7,6.22l-.82,3.45h-15.66l1.28-5.56c.12-.56.35-1.56.35-2.78,0-4.22-2.8-6.67-7.36-6.67-4.79,0-7.95,2.67-9.12,7.89l-8.18,36.44c-.23,1-.35,2-.35,2.89,0,4.11,2.69,6.56,7.25,6.56,4.91,0,7.95-2.78,9.11-7.89l2.22-9.33h15.66l-2.34,10.44c-2.92,12.89-11.33,19.89-25.47,19.89-12.86,0-23.02-5.78-23.02-18.56Z"/>
      <path class="cls-1" d="M874.04,81.33c0-1.89.23-4,.7-6.11l7.83-35.33c2.8-12.56,11.33-19.89,25.94-19.89,13.21,0,24.07,6.11,24.07,18.78,0,1.89-.23,3.89-.7,6l-7.83,35.33c-2.81,12.56-11.45,19.89-25.94,19.89-13.21,0-24.07-6-24.07-18.67ZM907.58,78.89l8.06-36.22c.23-.89.35-1.67.35-2.45,0-4.11-2.81-6.67-7.95-6.67-4.67,0-7.95,2.56-9,7.44l-8.06,36.22c-.12.56-.35,1.56-.35,2.67,0,4.11,2.92,6.56,7.83,6.56s8.06-2.78,9.11-7.56Z"/>
      <path class="cls-1" d="M933.64,83.33h16.36l-3.51,15.56h-16.36l3.51-15.56Z"/>
    </g>
    <g>
      <polygon class="cls-1" points="100 10 90.62 35 87.5 43.33 85.94 47.5 76.56 72.5 75 76.67 71.88 85 68.75 93.33 65.62 85 62.5 76.67 60.94 72.5 56.25 60 60.94 47.5 62.5 43.33 65.62 35 75 10 100 10"/>
      <polygon class="cls-1" points="62.5 110 37.5 110 28.12 85 25 76.67 23.44 72.5 14.06 47.5 12.5 43.33 9.38 35 0 10 25 10 34.38 35 37.5 43.33 39.06 47.5 48.44 72.5 50 76.67 53.12 85 62.5 110"/>
    </g>
    <line class="cls-2" x1="125" x2="125" y2="120"/>
  </g>
</svg>