<?xml version="1.0" encoding="UTF-8"?>
<svg id="Layer_2" data-name="Layer 2" xmlns="http://www.w3.org/2000/svg" viewBox="0 0 273.27 150">
  <defs>
    <style>
      .cls-1 {
        fill: #b31942;
      }

      .cls-2 {
        fill: #0a3161;
      }
    </style>
  </defs>
  <g id="Layer_1-2" data-name="Layer 1">
    <path class="cls-2" d="M0,0v77.78h109.78V0H0ZM47.12,69.98l-5.83-15.54-1.94-5.18-.97-2.59-5.83-15.54-.97-2.59-1.94-5.18-5.83-15.54h15.54l5.83,15.54,1.94,5.18.97,2.59,5.83,15.54.97,2.59,1.94,5.18,5.83,15.54h-15.54ZM80.15,23.34l-1.94,5.18-.97,2.59-5.83,15.54-.97,2.59-1.94,5.18-1.94,5.18-1.94-5.18-1.94-5.18-.97-2.59-2.91-7.77,2.91-7.77.97-2.59,1.94-5.18,5.83-15.54h15.54l-5.83,15.54Z"/>
    <polygon class="cls-1" points="109.78 0 109.78 11.11 187.94 11.11 192.11 0 109.78 0"/>
    <polygon class="cls-1" points="272.36 5.56 190.03 5.56 185.86 16.67 272.36 16.67 272.36 5.56"/>
    <polygon class="cls-1" points="272.36 38.89 272.36 27.78 181.69 27.78 177.53 38.89 272.36 38.89"/>
    <polygon class="cls-1" points="109.78 33.33 179.61 33.33 183.78 22.22 109.78 22.22 109.78 33.33"/>
    <polygon class="cls-1" points="272.36 61.11 272.36 50 173.36 50 169.19 61.11 272.36 61.11"/>
    <polygon class="cls-1" points="109.78 55.56 171.28 55.56 175.44 44.44 109.78 44.44 109.78 55.56"/>
    <polygon class="cls-1" points="272.36 83.33 272.36 72.22 165.03 72.22 160.86 83.33 272.36 83.33"/>
    <polygon class="cls-1" points="109.78 77.78 162.94 77.78 167.11 66.67 109.78 66.67 109.78 77.78"/>
    <polygon class="cls-1" points="0 100 154.61 100 158.78 88.89 0 88.89 0 100"/>
    <polygon class="cls-1" points="272.36 105.56 272.36 94.44 156.69 94.44 152.53 105.56 272.36 105.56"/>
    <polygon class="cls-1" points="0 122.22 146.28 122.22 150.44 111.11 0 111.11 0 122.22"/>
    <polygon class="cls-1" points="272.36 127.78 272.36 116.67 148.36 116.67 144.19 127.78 272.36 127.78"/>
    <polygon class="cls-1" points="0 144.44 137.94 144.44 142.11 133.33 0 133.33 0 144.44"/>
    <g>
      <path class="cls-1" d="M170,139.04l-.06,10.8h-2.22l.07-1.96h-2.55l-.81,1.96h-2.26l4.77-10.8h3.07ZM167.82,146.03l.16-4.83-2,4.83h1.83Z"/>
      <path class="cls-1" d="M171.86,147.69h2.27l-.49,2.16h-2.27l.49-2.16Z"/>
      <path class="cls-1" d="M176.83,139.04h2.09l-.8,8.15,2.99-8.15h2.34l-.67,8.15,2.87-8.15h2.03l-3.9,10.8h-2.81l.58-7.28-2.69,7.28h-2.99l.94-10.8Z"/>
      <path class="cls-1" d="M186.5,147.69h2.27l-.49,2.16h-2.27l.49-2.16Z"/>
      <path class="cls-1" d="M194.91,139.04h2.24l-.41,8.3,3.33-8.3h2.24l-4.61,10.79h-2.99l.19-10.79Z"/>
      <path class="cls-1" d="M207.83,139.04l-.06,10.8h-2.22l.07-1.96h-2.55l-.81,1.96h-2.26l4.77-10.8h3.07ZM205.65,146.03l.16-4.83-2,4.83h1.83Z"/>
      <path class="cls-1" d="M209.29,147.47c0-.35.07-.69.11-.91l1.69-7.52h2.32l-1.75,7.85c-.02.08-.05.23-.05.37,0,.54.41.85,1.07.85.7,0,1.06-.29,1.23-.99l1.82-8.09h2.24l-1.83,8.19c-.39,1.74-1.56,2.76-3.55,2.76-1.8,0-3.29-.82-3.29-2.53Z"/>
      <path class="cls-1" d="M225.6,141.48c0,.26-.03.54-.1.83l-.07.31h-2.17l.1-.43c.05-.2.07-.28.07-.43,0-.62-.36-.99-1.07-.99s-1.14.39-1.28,1.03l-1.12,5.05c-.03.12-.05.23-.05.34,0,.57.41.93,1.09.93.73,0,1.12-.39,1.27-1.03l.31-1.45h-1.12l.42-1.96h3.34l-.81,3.6c-.39,1.74-1.66,2.73-3.57,2.73-1.79,0-3.23-.85-3.23-2.58,0-.26.03-.56.1-.85l1.09-4.92c.39-1.76,1.64-2.76,3.57-2.76,1.8,0,3.25.86,3.25,2.59Z"/>
      <path class="cls-1" d="M227.76,139.04h2.32l-.99,4.38h2.34l.99-4.38h2.32l-2.42,10.8h-2.32l1.01-4.54h-2.34l-1.01,4.54h-2.32l2.42-10.8Z"/>
      <path class="cls-1" d="M241.36,139.04l-.06,10.8h-2.22l.07-1.96h-2.55l-.81,1.96h-2.26l4.77-10.8h3.07ZM239.19,146.03l.16-4.83-2,4.83h1.83Z"/>
      <path class="cls-1" d="M244.95,139.04h2.74l.88,6.25,1.43-6.25h2.06l-2.42,10.8h-2.24l-1.07-7.69-1.74,7.69h-2.06l2.42-10.8Z"/>
      <path class="cls-1" d="M254.73,147.42c0-.26.03-.56.1-.85l1.1-4.92c.41-1.79,1.57-2.76,3.54-2.76,1.79,0,3.2.8,3.2,2.56,0,.26-.03.59-.1.86l-.11.48h-2.17l.18-.77c.02-.08.05-.22.05-.39,0-.59-.39-.93-1.02-.93-.67,0-1.1.37-1.27,1.1l-1.14,5.06c-.03.14-.05.28-.05.4,0,.57.37.91,1.01.91.68,0,1.1-.39,1.27-1.1l.31-1.3h2.17l-.32,1.45c-.41,1.79-1.57,2.76-3.54,2.76-1.79,0-3.2-.8-3.2-2.58Z"/>
      <path class="cls-1" d="M262.72,147.41c0-.26.03-.56.1-.85l1.09-4.91c.39-1.74,1.57-2.76,3.6-2.76,1.83,0,3.34.85,3.34,2.61,0,.26-.03.54-.1.83l-1.09,4.91c-.39,1.74-1.59,2.76-3.6,2.76-1.83,0-3.34-.83-3.34-2.59ZM267.38,147.07l1.12-5.03c.03-.12.05-.23.05-.34,0-.57-.39-.93-1.1-.93-.65,0-1.1.35-1.25,1.03l-1.12,5.03c-.02.08-.05.22-.05.37,0,.57.41.91,1.09.91s1.12-.39,1.27-1.05Z"/>
      <path class="cls-1" d="M271,147.69h2.27l-.49,2.16h-2.27l.49-2.16Z"/>
    </g>
    <polygon class="cls-1" points="140.03 138.89 135.86 150 159.03 150 163.94 138.89 140.03 138.89"/>
  </g>
</svg>