<?xml version="1.0" encoding="UTF-8"?>
<svg id="Layer_2" data-name="Layer 2" xmlns="http://www.w3.org/2000/svg" viewBox="0 0 700 150">
  <defs>
    <style>
      .cls-1 {
        fill: #ff9e00;
      }

      .cls-2 {
        fill: #fff;
      }

      .cls-3 {
        fill: none;
        stroke: #fff;
        stroke-miterlimit: 10;
        stroke-width: 5px;
      }
    </style>
  </defs>
  <g id="Layer_1-2" data-name="Layer 1">
    <rect class="cls-1" width="700" height="150"/>
    <g>
      <polygon class="cls-2" points="125 25 115.62 50 112.5 58.33 110.94 62.5 101.56 87.5 100 91.67 96.88 100 93.75 108.33 90.62 100 87.5 91.67 85.94 87.5 81.25 75 85.94 62.5 87.5 58.33 90.62 50 100 25 125 25"/>
      <polygon class="cls-2" points="87.5 125 62.5 125 53.12 100 50 91.67 48.44 87.5 39.06 62.5 37.5 58.33 34.38 50 25 25 50 25 59.38 50 62.5 58.33 64.06 62.5 73.44 87.5 75 91.67 78.12 100 87.5 125"/>
    </g>
    <line class="cls-3" x1="150" y1="25" x2="150" y2="125"/>
    <g>
      <path class="cls-2" d="M210.28,31.94l-.29,48.61h-10.01l.29-8.82h-11.47l-3.65,8.82h-10.15l21.47-48.61h13.8ZM200.49,63.4l.73-21.74-8.98,21.74h8.25Z"/>
      <path class="cls-2" d="M218.67,70.83h10.23l-2.19,9.72h-10.23l2.19-9.72Z"/>
      <path class="cls-2" d="M241.03,31.94h9.42l-3.58,36.67,13.44-36.67h10.52l-2.99,36.67,12.93-36.67h9.13l-17.53,48.61h-12.63l2.63-32.78-12.12,32.78h-13.44l4.24-48.61Z"/>
      <path class="cls-2" d="M284.55,70.83h10.23l-2.19,9.72h-10.23l2.19-9.72Z"/>
      <path class="cls-2" d="M322.39,31.94h10.08l-1.83,37.36,14.97-37.36h10.08l-20.74,48.54h-13.44l.88-48.54Z"/>
      <path class="cls-2" d="M380.52,31.94l-.29,48.61h-10.01l.29-8.82h-11.47l-3.65,8.82h-10.15l21.47-48.61h13.8ZM370.74,63.4l.73-21.74-8.98,21.74h8.25Z"/>
      <path class="cls-2" d="M387.09,69.86c0-1.6.29-3.13.51-4.1l7.6-33.82h10.44l-7.89,35.35c-.07.35-.22,1.04-.22,1.67,0,2.43,1.83,3.82,4.82,3.82,3.14,0,4.75-1.32,5.55-4.44l8.18-36.39h10.08l-8.25,36.88c-1.75,7.85-7.01,12.43-16,12.43-8.11,0-14.83-3.68-14.83-11.39Z"/>
      <path class="cls-2" d="M460.5,42.92c0,1.18-.15,2.43-.44,3.75l-.29,1.39h-9.79l.44-1.94c.22-.9.29-1.25.29-1.94,0-2.78-1.61-4.44-4.82-4.44s-5.11,1.74-5.77,4.65l-5.04,22.71c-.15.56-.22,1.04-.22,1.53,0,2.57,1.83,4.17,4.89,4.17,3.29,0,5.04-1.74,5.7-4.65l1.39-6.53h-5.04l1.9-8.82h15.05l-3.65,16.18c-1.75,7.85-7.45,12.29-16.07,12.29-8.03,0-14.53-3.82-14.53-11.6,0-1.18.15-2.5.44-3.82l4.89-22.15c1.75-7.92,7.38-12.43,16.07-12.43,8.11,0,14.61,3.89,14.61,11.67Z"/>
      <path class="cls-2" d="M470.21,31.94h10.44l-4.46,19.72h10.52l4.46-19.72h10.44l-10.88,48.61h-10.44l4.53-20.42h-10.52l-4.53,20.42h-10.44l10.88-48.61Z"/>
      <path class="cls-2" d="M531.41,31.94l-.29,48.61h-10.01l.29-8.82h-11.47l-3.65,8.82h-10.15l21.47-48.61h13.8ZM521.63,63.4l.73-21.74-8.98,21.74h8.25Z"/>
      <path class="cls-2" d="M547.55,31.94h12.34l3.94,28.13,6.43-28.13h9.28l-10.88,48.61h-10.08l-4.82-34.58-7.82,34.58h-9.28l10.88-48.61Z"/>
      <path class="cls-2" d="M591.59,69.65c0-1.18.15-2.5.44-3.82l4.97-22.15c1.83-8.06,7.08-12.43,15.92-12.43,8.03,0,14.39,3.61,14.39,11.53,0,1.18-.15,2.64-.44,3.89l-.51,2.15h-9.79l.8-3.47c.07-.35.22-.97.22-1.74,0-2.64-1.75-4.17-4.6-4.17-2.99,0-4.97,1.67-5.7,4.93l-5.11,22.78c-.15.63-.22,1.25-.22,1.81,0,2.57,1.68,4.1,4.53,4.1,3.07,0,4.97-1.74,5.7-4.93l1.39-5.83h9.79l-1.46,6.53c-1.83,8.06-7.08,12.43-15.92,12.43-8.03,0-14.39-3.61-14.39-11.6Z"/>
      <path class="cls-2" d="M627.53,69.58c0-1.18.15-2.5.44-3.82l4.89-22.08c1.75-7.85,7.08-12.43,16.21-12.43,8.25,0,15.05,3.82,15.05,11.74,0,1.18-.15,2.43-.44,3.75l-4.89,22.08c-1.75,7.85-7.16,12.43-16.21,12.43-8.25,0-15.05-3.75-15.05-11.67ZM648.49,68.06l5.04-22.64c.15-.56.22-1.04.22-1.53,0-2.57-1.75-4.17-4.97-4.17-2.92,0-4.97,1.6-5.62,4.65l-5.04,22.64c-.07.35-.22.97-.22,1.67,0,2.57,1.83,4.1,4.89,4.1s5.04-1.74,5.7-4.72Z"/>
      <path class="cls-2" d="M664.77,70.83h10.23l-2.19,9.72h-10.23l2.19-9.72Z"/>
    </g>
    <g>
      <path class="cls-2" d="M175.42,94.05h4.86l-.88,16.2,7.22-16.2h4.86l-10,21.05h-6.48l.42-21.05Z"/>
      <path class="cls-2" d="M194.16,94.05h5.03l-5.25,21.08h-5.04l5.25-21.08Z"/>
      <path class="cls-2" d="M203.07,94.05h6.87c3.94,0,6.37,1.84,6.37,4.67,0,.69-.14,1.3-.21,1.57l-.11.42c-.6,2.35-1.65,3.37-4.33,4.1v.06c1.55.39,2.36,1.42,2.36,3.1,0,.57-.11,1.24-.28,1.96l-.63,2.47c-.21.81-.35,1.45-.35,2.02,0,.24.03.48.11.72h-4.86c-.07-.33-.14-.57-.14-.96,0-.42.07-1.05.35-2.17l.67-2.74c.11-.45.18-.84.18-1.18,0-1.05-.7-1.39-2.47-1.39h-1.65l-2.08,8.43h-5.04l5.25-21.08ZM207.26,103.03c2.04,0,3.27-.6,3.66-2.23l.25-.96c.07-.33.07-.45.07-.63,0-.96-.67-1.48-1.97-1.48h-2.08l-1.34,5.3h1.41Z"/>
      <path class="cls-2" d="M234.3,98.81c0,.51-.07,1.05-.21,1.63l-.14.6h-4.72l.21-.84c.11-.39.14-.54.14-.84,0-1.2-.78-1.93-2.32-1.93s-2.47.75-2.78,2.02l-2.43,9.85c-.07.24-.11.45-.11.66,0,1.11.88,1.81,2.36,1.81,1.58,0,2.43-.75,2.75-2.02l.67-2.83h-2.43l.91-3.83h7.25l-1.76,7.02c-.85,3.4-3.59,5.33-7.75,5.33-3.87,0-7.01-1.66-7.01-5.03,0-.51.07-1.08.21-1.66l2.36-9.61c.85-3.43,3.56-5.39,7.75-5.39,3.91,0,7.04,1.69,7.04,5.06Z"/>
      <path class="cls-2" d="M238.98,94.05h5.03l-5.25,21.08h-5.04l5.25-21.08Z"/>
      <path class="cls-2" d="M247.89,94.05h5.95l1.9,12.2,3.1-12.2h4.47l-5.25,21.08h-4.86l-2.32-15-3.77,15h-4.47l5.25-21.08Z"/>
      <path class="cls-2" d="M267.19,94.05h5.03l-5.25,21.08h-5.04l5.25-21.08Z"/>
      <path class="cls-2" d="M286.59,94.05l-.14,21.08h-4.82l.14-3.83h-5.53l-1.76,3.83h-4.89l10.35-21.08h6.66ZM281.87,107.7l.35-9.43-4.33,9.43h3.98Z"/>
      <path class="cls-2" d="M300.71,94.05h7.08c4.16,0,6.41,1.48,6.41,4.16,0,.42-.04.9-.18,1.42l-.11.42c-.56,2.29-1.83,3.55-4.19,4.16v.09c1.65.42,2.61,1.78,2.61,3.52,0,.42-.07.87-.18,1.33l-.11.42c-.99,4.01-3.49,5.57-8.52,5.57h-8.06l5.25-21.08ZM303.99,111.46c1.76,0,2.71-.66,3.1-2.17l.14-.57c.11-.39.14-.75.14-1.05,0-1.14-.77-1.54-2.68-1.54h-1.97l-1.3,5.33h2.57ZM305.33,102.46c2.01,0,3.1-.66,3.49-2.14l.11-.42c.07-.3.11-.57.11-.81,0-.93-.63-1.36-2.04-1.36h-2.15l-1.2,4.73h1.69Z"/>
      <path class="cls-2" d="M318.99,94.05h13.42l-.92,3.67h-8.38l-1.23,4.88h6.65l-.91,3.67h-6.66l-1.27,5.18h8.38l-.92,3.67h-13.42l5.25-21.08Z"/>
      <path class="cls-2" d="M346.07,94.05l-.14,21.08h-4.82l.14-3.83h-5.53l-1.76,3.83h-4.89l10.35-21.08h6.66ZM341.35,107.7l.35-9.43-4.33,9.43h3.98Z"/>
      <path class="cls-2" d="M348.96,110.41c0-.51.07-1.08.21-1.66l2.39-9.61c.88-3.49,3.42-5.39,7.68-5.39,3.87,0,6.94,1.57,6.94,5,0,.51-.07,1.14-.21,1.69l-.25.93h-4.72l.39-1.51c.04-.15.11-.42.11-.75,0-1.14-.85-1.81-2.22-1.81-1.44,0-2.39.72-2.75,2.14l-2.47,9.88c-.07.27-.11.54-.11.78,0,1.11.81,1.78,2.18,1.78,1.48,0,2.4-.75,2.75-2.14l.67-2.53h4.72l-.7,2.83c-.88,3.49-3.42,5.39-7.68,5.39-3.87,0-6.94-1.57-6.94-5.03Z"/>
      <path class="cls-2" d="M370.58,94.05h5.03l-2.15,8.55h5.07l2.15-8.55h5.04l-5.25,21.08h-5.03l2.18-8.86h-5.07l-2.18,8.86h-5.04l5.25-21.08Z"/>
      <path class="cls-2" d="M386,115.14h-1.62l1.06-4.22h4.89l-.85,3.8-3.84,4.04h-2.39l2.75-3.61Z"/>
      <path class="cls-2" d="M403.75,94.05h4.86l-.88,16.2,7.22-16.2h4.86l-10,21.05h-6.48l.42-21.05Z"/>
      <path class="cls-2" d="M422.48,94.05h5.03l-5.25,21.08h-5.04l5.25-21.08Z"/>
      <path class="cls-2" d="M431.39,94.05h6.87c3.94,0,6.37,1.84,6.37,4.67,0,.69-.14,1.3-.21,1.57l-.11.42c-.6,2.35-1.65,3.37-4.33,4.1v.06c1.55.39,2.36,1.42,2.36,3.1,0,.57-.11,1.24-.28,1.96l-.63,2.47c-.21.81-.35,1.45-.35,2.02,0,.24.03.48.11.72h-4.86c-.07-.33-.14-.57-.14-.96,0-.42.07-1.05.35-2.17l.67-2.74c.11-.45.18-.84.18-1.18,0-1.05-.7-1.39-2.47-1.39h-1.65l-2.08,8.43h-5.04l5.25-21.08ZM435.58,103.03c2.04,0,3.27-.6,3.66-2.23l.25-.96c.07-.33.07-.45.07-.63,0-.96-.67-1.48-1.97-1.48h-2.08l-1.34,5.3h1.41Z"/>
      <path class="cls-2" d="M462.63,98.81c0,.51-.07,1.05-.21,1.63l-.14.6h-4.72l.21-.84c.11-.39.14-.54.14-.84,0-1.2-.78-1.93-2.32-1.93s-2.47.75-2.78,2.02l-2.43,9.85c-.07.24-.11.45-.11.66,0,1.11.88,1.81,2.36,1.81,1.58,0,2.43-.75,2.75-2.02l.67-2.83h-2.43l.91-3.83h7.25l-1.76,7.02c-.85,3.4-3.59,5.33-7.75,5.33-3.87,0-7.01-1.66-7.01-5.03,0-.51.07-1.08.21-1.66l2.36-9.61c.85-3.43,3.56-5.39,7.75-5.39,3.91,0,7.04,1.69,7.04,5.06Z"/>
      <path class="cls-2" d="M467.31,94.05h5.03l-5.25,21.08h-5.04l5.25-21.08Z"/>
      <path class="cls-2" d="M476.22,94.05h5.95l1.9,12.2,3.1-12.2h4.47l-5.25,21.08h-4.86l-2.32-15-3.77,15h-4.47l5.25-21.08Z"/>
      <path class="cls-2" d="M495.52,94.05h5.03l-5.25,21.08h-5.04l5.25-21.08Z"/>
      <path class="cls-2" d="M514.92,94.05l-.14,21.08h-4.82l.14-3.83h-5.53l-1.76,3.83h-4.89l10.35-21.08h6.66ZM510.2,107.7l.35-9.43-4.33,9.43h3.98Z"/>
      <path class="cls-2" d="M525.59,104.38h9.86l-.88,3.43h-9.86l.88-3.43Z"/>
      <path class="cls-2" d="M547.35,94.05h13.42l-.92,3.67h-8.38l-1.23,4.88h6.65l-.91,3.67h-6.66l-1.27,5.18h8.38l-.92,3.67h-13.42l5.25-21.08Z"/>
      <path class="cls-2" d="M558.97,110.59c0-.48.07-.99.21-1.54l.07-.33h4.72l-.18.72c-.04.21-.07.42-.07.63,0,1.02.74,1.81,2.43,1.81s2.75-.93,2.75-2.56c0-1.27-.85-2.11-3.27-3.46-2.92-1.63-3.98-3.37-3.98-5.42,0-4.04,2.96-6.69,7.64-6.69,4.01,0,7.08,1.57,7.08,4.85,0,.51-.07,1.02-.21,1.57h-4.75l.11-.36c.07-.27.11-.51.11-.75,0-1.24-1.16-1.75-2.36-1.75-1.55,0-2.54.99-2.54,2.35,0,1.2.92,2.11,3.38,3.46,2.92,1.6,3.91,3.34,3.91,5.39,0,4.19-2.82,6.93-7.78,6.93-4.09,0-7.25-1.54-7.25-4.85Z"/>
      <path class="cls-2" d="M583.87,97.73h-5.14l.92-3.67h15.32l-.92,3.67h-5.14l-4.33,17.41h-5.04l4.33-17.41Z"/>
      <path class="cls-2" d="M590.45,110.92h4.93l-1.06,4.22h-4.93l1.06-4.22Z"/>
      <path class="cls-2" d="M604.64,111.64c.67-2.65,2.25-4.64,7.08-7.05,4.72-2.38,5.88-3.43,5.88-5.24,0-1.36-.95-1.93-2.32-1.93-1.51,0-2.43.66-2.82,2.14l-.49,1.93h-4.72l.56-2.38c.81-3.31,3.34-5.36,7.75-5.36,3.94,0,7.04,1.63,7.04,5.21,0,3.19-2.15,5.36-8.8,8.86-3.42,1.78-3.77,2.2-4.05,3.22l-.11.42h9.37l-.92,3.67h-14.3l.85-3.49Z"/>
      <path class="cls-2" d="M622.39,110.38c0-.51.07-1.08.21-1.66l2.36-9.58c.85-3.4,3.42-5.39,7.82-5.39,3.98,0,7.25,1.66,7.25,5.09,0,.51-.07,1.05-.21,1.63l-2.36,9.58c-.85,3.4-3.45,5.39-7.82,5.39-3.98,0-7.25-1.63-7.25-5.06ZM632.5,109.71l2.43-9.82c.07-.24.11-.45.11-.66,0-1.11-.85-1.81-2.39-1.81-1.41,0-2.39.69-2.71,2.02l-2.43,9.82c-.04.15-.11.42-.11.72,0,1.11.88,1.78,2.36,1.78s2.43-.75,2.75-2.05Z"/>
      <path class="cls-2" d="M639.47,111.64c.67-2.65,2.25-4.64,7.08-7.05,4.72-2.38,5.88-3.43,5.88-5.24,0-1.36-.95-1.93-2.32-1.93-1.51,0-2.43.66-2.82,2.14l-.49,1.93h-4.72l.56-2.38c.81-3.31,3.34-5.36,7.75-5.36,3.94,0,7.04,1.63,7.04,5.21,0,3.19-2.15,5.36-8.8,8.86-3.42,1.78-3.77,2.2-4.05,3.22l-.11.42h9.37l-.92,3.67h-14.3l.85-3.49Z"/>
      <path class="cls-2" d="M657.15,110.5c0-.66.11-1.27.35-2.35h4.72c-.35,1.39-.39,1.63-.39,1.9,0,1.08.91,1.72,2.39,1.72,1.58,0,2.39-.63,2.75-2.02l.81-3.31c.07-.27.11-.57.11-.78,0-1.05-.7-1.75-2.32-1.75s-2.47.84-2.89,2.23h-4.72l4.05-12.08h12.99l-.92,3.67h-8.59l-1.41,3.73c.95-.78,2.22-1.23,4.01-1.23,3.27,0,5.04,1.48,5.04,4.07,0,.51-.07,1.14-.25,1.87l-.95,3.95c-.85,3.46-3.27,5.33-7.68,5.33-3.91,0-7.11-1.48-7.11-4.94Z"/>
    </g>
  </g>
</svg>
