<?xml version="1.0" encoding="UTF-8"?>
<svg id="Layer_2" data-name="Layer 2" xmlns="http://www.w3.org/2000/svg" viewBox="0 0 792.12 611.98">
  <defs>
    <style>
      .cls-1 {
        stroke: gray;
      }

      .cls-1, .cls-2 {
        fill: none;
        stroke-dasharray: 7.59 1.9 .95 1.9;
        stroke-dashoffset: .95px;
        stroke-linecap: round;
        stroke-linejoin: round;
        stroke-width: .95px;
      }

      .cls-2 {
        stroke: #dcdcdc;
      }
    </style>
  </defs>
  <g id="Layer_1-2" data-name="Layer 1">
    <g>
      <polyline class="cls-2" points="593.62 17.67 592.05 18.47 590.17 20.54 593.15 19.26 594.09 19.1 594.88 17.99 593.62 17.67"/>
      <polyline class="cls-2" points="461.08 42.35 460.76 42.03 460.45 42.35 459.82 42.98 459.82 44.89 461.39 42.83 461.08 42.35"/>
      <polyline class="cls-2" points="255.19 9.71 252.37 11.62 255.35 10.67 256.76 10.35 256.29 9.55 255.82 9.23 255.19 9.71"/>
      <polyline class="cls-2" points="196.15 5.89 195.83 5.41 194.73 6.05 195.05 6.52 195.52 6.69 195.99 6.36 196.15 5.89"/>
      <line class="cls-2" x1="165.53" y1=".47" x2="165.53" y2=".47"/>
      <polyline class="cls-2" points="172.44 .47 173.38 1.11 174.79 .79 175.89 1.11 178.72 .63 178.24 .47"/>
      <polyline class="cls-2" points="771.55 2.23 773.75 2.38 774.06 2.54 774.85 2.54 776.89 2.07 778.61 1.75 779.87 1.43 780.81 1.43 782.07 2.86 784.58 3.02 785.53 3.18 787.1 3.66 787.57 4.14 789.45 4.61 791.65 3.82"/>
      <polyline class="cls-2" points="11.62 15.76 14.76 14.01 17.59 13.69 20.42 13.21 23.09 13.21 26.07 12.42 26.23 14.17 27.64 15.6 30.78 14.01 33.61 13.69 35.34 13.69 36.12 13.85 37.22 13.37 39.1 12.89 40.99 11.94 42.25 11.46 44.13 11.14 44.92 11.46 46.49 11.94 47.43 12.26 48.84 11.78 50.41 10.98 51.67 11.3 51.2 12.58 51.67 13.37 52.3 13.53 54.81 13.69 56.38 11.62 58.58 10.51 59.68 9.87 61.4 9.71 63.29 9.39 63.6 11.3 66.74 9.55 68.63 9.39 69.57 9.23 70.83 9.55 71.93 10.35 73.03 10.03 73.97 9.23 75.07 8.76 77.74 8.76 78.52 8.12 80.72 7.48 81.82 7.96 82.92 9.07 85.12 7.64 86.37 6.85 89.2 6.21 87.63 8.44 87.63 9.07 88.26 9.23 89.04 8.91 91.24 7.96 92.34 8.6 92.81 7.48 93.6 6.85 94.7 5.41 96.11 6.69 96.74 7.32 97.99 7.8 99.25 7.8 100.98 8.27 101.61 8.91 104.44 8.6 105.22 6.05 108.04 5.73 110.09 5.57 110.56 6.05 111.5 5.57 113.55 5.09 114.17 5.57 114.8 6.52 115.12 7.16 115.43 7.48 116.84 7.16 118.72 5.25 121.24 6.05 123.75 6.36 126.11 4.93 127.2 3.98 128.31 4.29 129.56 4.77 130.5 5.25 131.92 5.57 133.64 4.61 135.22 3.82 137.41 3.18 137.73 2.86 138.04 3.02 138.83 3.66 138.83 5.09 139.61 6.69 141.97 4.77 142.44 4.45 143.22 3.82 144.17 3.66 144.17 2.7 146.68 .95 147.94 2.38 147.46 3.82 147.78 5.73 148.72 4.93 149.98 4.77 151.23 3.82 152.33 4.14 153.74 4.14 154.53 5.09 155.94 5.57 157.2 5.73 158.3 6.52 159.56 6.52 160.81 7 162.07 7.32 163.33 7.16 164.74 6.85 165.21 5.73 163.79 5.73 162.22 5.09 161.6 4.45 160.97 3.82 160.81 2.86 162.38 2.07 163.48 2.38 164.9 2.38 166.47 3.02 167.1 3.66 169.92 3.18 172.9 2.23 174.79 2.7 175.26 3.18 176.83 2.7 178.72 .63 181.23 1.43 185.15 1.43 185.94 3.02 187.51 .95 189.08 .47"/>
      <polyline class="cls-2" points="191.28 .47 191.91 .95 192.22 1.91 193.95 3.02 197.09 1.43 197.4 3.34 199.13 3.34 200.86 3.5 201.64 4.14 202.9 3.34 204.94 1.91 206.35 1.75 207.77 1.27 208.08 1.91 208.71 2.54 209.34 3.18 209.81 3.5 211.22 3.34 212.63 3.18 213.42 3.18 213.58 4.14 213.11 5.41 214.37 5.73 215.62 6.21 217.03 5.73 218.45 5.73 220.02 4.93 220.65 5.57 222.06 6.85 223.79 7.96 224.26 8.12 225.2 7.96 225.2 7.32 226.14 5.57 228.19 4.14 229.13 5.25 230.22 6.21 231.01 6.36 232.42 7.64 235.25 6.85 236.98 7.32 237.76 7.64 239.33 8.12 240.12 8.44 242.79 8.44 243.73 9.87 244.67 10.82 245.3 11.14 247.03 11.62 248.91 11.3 249.7 11.94 252.37 11.62 252.68 13.37 254.1 14.8 255.82 12.74 257.86 11.3 259.12 12.1 259.9 13.05 260.22 13.53 262.1 14.65 259.28 15.12 258.33 16.24 257.86 16.87 258.65 16.87 259.28 16.56 262.1 14.65 263.83 15.92 263.21 17.83 263.21 18.15 263.52 18.63 264.46 18.15 266.5 17.51 267.13 18.15 268.54 19.58 271.21 19.42 272.94 19.26 273.88 19.1 275.14 20.22 276.08 21.01 278.91 20.22 280.01 21.81 280.79 22.76 281.58 22.92 283.31 23.08 283.77 23.88 285.35 25.15 287.7 25.95 288.49 27.54 289.9 27.54 291 28.34 292.26 28.18 293.51 28.97 294.3 30.25 297.28 29.13 298.22 30.72 299.01 32.32 301.84 31.84 301.84 32.79 303.88 33.59 304.35 33.59 306.39 34.23 308.9 32.95 309.85 31.84 309.85 32.79 310.63 33.43 310.79 34.38 311.57 34.7 314.24 34.7 314.56 36.45 316.13 36.94 317.07 37.25 318.33 38.21 319.27 38.05 321.15 37.89 323.19 38.21 323.67 38.36 325.08 39.16 325.86 39.64 327.44 39 328.38 37.57 329.01 36.77 329.47 36.61 331.04 36.14 329.95 37.09 329.63 38.85 331.2 39.64 331.52 39.96 332.3 40.6 332.93 41.23 333.24 41.87 333.72 41.07 334.97 40.12 336.23 39.16 336.86 38.85 337.49 39 339.37 39.16 340.63 39.32 341.88 39.48 342.82 40.27 344.24 40.6 346.28 40.44 346.91 40.76 348.16 40.44 349.89 39.64 350.05 40.6 352.25 40.44 353.19 40.91 354.6 41.55 356.96 40.76 357.59 40.44 358.21 40.44 358.69 41.23 359.31 41.87 359.63 42.03 362.3 42.35 364.65 43.14 367.48 42.51 370.31 42.35 371.88 43.46 372.35 43.94 375.02 43.94 378 43.14 379.1 43.94 380.2 44.74 381.93 44.42 382.87 44.42 384.6 45.05 385.38 45.21 387.9 45.53 391.04 43.78 391.82 45.37 393.24 45.37 395.28 45.21 395.9 45.05 396.38 45.21 397 45.85 397.47 46.65 398.1 46.65 399.05 46.49 400.93 46.33 402.34 46.17 403.29 46.96 404.23 47.28 405.95 46.96 407.84 46.65 408.94 46.33 409.25 46.65 409.88 47.28 410.67 47.92 410.98 48.24 411.92 47.92 413.96 46.96 415.53 46.49 416.79 46.33 419.93 45.21 421.5 46.49 421.5 48.4 424.64 47.12 427.15 47.6 430.14 46.49 432.65 46.8 435.48 46.33 438.15 46.33 440.66 46.65 443.33 46.49 445.69 45.69 446.31 45.53 447.89 45.05 447.41 46.33 448.04 46.96 448.51 47.12 449.14 46.8 451.81 45.37 455.11 45.37 456.84 46.01 459.82 44.89 462.8 43.94 464.22 44.74 465 45.53 467.04 45.37 467.67 45.37 469.08 45.21 470.5 44.89 471.28 45.21 473.17 44.74 474.9 45.37 475.53 46.01 477.1 45.21 478.67 44.58 481.49 43.94 485.42 43.94 486.67 44.1 488.72 43.62 489.66 43.14 492.64 42.35 495.31 42.51 498.29 41.39 500.81 41.55 501.28 41.87 503.32 42.19 506.3 41.39 509.45 39.8 511.02 38.85 512.59 38.05 515.1 38.85 518.08 37.57 519.03 37.57 520.91 37.09 522.79 36.94 523.58 37.25 524.68 36.61 526.4 36.3 528.29 36.14 529.23 36.14 530.49 36.94 531.43 37.25 533.47 36.94 534.42 36.3 536.62 35.18 537.87 34.23 538.5 34.86 540.38 34.7 541.33 34.07 543.68 32.63 544.62 32.47 546.98 30.56 548.39 31.84 549.18 32.16 549.81 31.52 552.63 29.61 554.99 27.7 555.93 27.38 556.56 27.7 556.56 29.61 557.81 29.77 558.76 28.97 561.27 27.54 562.53 27.54 563.31 27.22 564.1 26.74 564.88 26.11 565.82 25.95 567.08 25.79 568.96 24.36 570.53 23.4 572.58 23.4 573.2 23.56 574.15 23.24 576.19 22.29 577.29 23.08 578.54 23.4 580.58 22.76 581.68 21.81 582.31 22.45 584.35 21.97 585.29 21.65 586.71 20.22 586.55 19.26 592.83 16.08 594.25 15.92 595.66 15.6 596.92 15.92 598.02 16.4 598.96 17.99 600.22 15.76 602.57 14.96 605.24 14.65 607.6 12.74 608.07 12.42 608.54 12.74 610.89 13.85 612.31 12.74 613.25 11.94 614.19 11.78 614.82 11.78 614.66 12.42 616.08 14.01 616.86 13.85 617.49 13.37 619.53 11.78 620.32 11.62 621.26 10.51 622.51 9.55 622.99 9.39 623.3 9.39 625.5 9.87 626.6 9.87 628.01 10.35 630.84 9.71 631.62 11.3 633.04 11.3 633.51 11.14 635.71 11.3 637.59 9.23 639.63 7.16 640.42 8.76 641.36 9.87 642.3 9.87 643.72 11.14 646.7 10.19 647.64 9.87 649.69 9.07 650.31 9.87 652.04 10.03 654.08 9.87 654.71 10.03 655.49 9.71 658.01 7.8 660.36 8.6 663.35 7.96 665.23 8.27 665.7 9.07 666.64 7.96 669 6.69 670.41 6.52 671.83 6.52 672.61 6.36 674.5 6.21 677.17 6.05 679.68 6.85 680.94 5.57 682.51 6.21 683.6 6.85 684.86 7 685.65 7 686.43 6.36 688 5.57 688.63 6.21 690.36 6.85 693.19 6.05 695.7 6.85 698.53 5.89 700.72 6.21 701.04 6.36 703.55 6.69 705.28 4.61 707.16 4.14 708.1 4.45 709.36 5.25 709.99 5.41 711.56 6.69 714.38 6.21 717.21 5.73 719.57 6.52 722.71 5.41 724.59 6.05 725.06 6.21 726.01 6.05 726.79 4.93 727.58 3.82 728.52 3.66 729.15 3.66 731.03 4.29 731.66 4.45 733.39 5.09 735.74 3.82 736.53 3.5 737 3.66 737.63 4.45 738.26 5.09 738.72 5.25 740.61 5.89 741.08 6.05 742.03 5.89 744.06 5.25 746.74 4.77 750.03 3.18 752.55 3.34 753.17 3.5 755.06 3.82 758.04 3.02 760.4 3.82 762.28 3.82 763.22 2.07 763.7 1.91 764.64 1.75 766.05 3.02 768.41 3.82 769.19 6.85 769.51 7.32 769.98 7.32 770.45 7.16 770.76 6.69 772.18 5.09 771.55 2.23 768.41 3.82"/>
    </g>
  </g>
</svg>
